# Blender v2.78 (sub 0) OBJ File: 'spaceship.blend'
# www.blender.org
mtllib spaceship.mtl
o Plane_Cube.002
v -0.362357 -0.211014 0.628529
v -1.025033 0.221711 0.661416
v 0.367294 -0.211014 0.628529
v 1.029970 0.221711 0.661420
v -0.342562 -0.208695 2.266842
v -1.005238 0.224030 2.061530
v 0.347500 -0.208695 2.266842
v 1.010175 0.224030 2.061530
v 0.002469 -0.270354 0.642624
v -0.855702 0.010139 0.467444
v 0.002469 0.229815 0.642624
v 0.860639 0.010139 0.467444
v 0.370411 -0.212733 1.375568
v 1.045609 0.264207 1.361473
v 0.814218 0.039590 2.253218
v 0.002469 -0.270354 2.266842
v 0.002469 0.229815 2.080323
v -0.809281 0.039590 2.253218
v -0.365474 -0.212733 1.375568
v -1.040671 0.264207 1.361473
v 0.002469 0.267646 1.361473
v 0.002469 -0.270354 1.375568
v -1.095679 -0.004481 1.361473
v 0.002469 0.089850 2.421887
v 1.100617 -0.004481 1.361473
v 0.002469 0.085212 0.304342
v -0.362357 -0.211014 0.290247
v 0.367294 -0.211014 0.290247
v 0.002469 -0.270354 0.276152
v -0.306090 -0.215528 -0.456978
v 0.311028 -0.215528 -0.456978
v 0.002469 -0.270354 -0.456978
v -0.365473 -0.009516 -0.442883
v 0.370411 -0.009516 -0.442883
v 0.002469 0.047381 -0.456978
v -0.300338 -0.212733 3.205252
v 0.305275 -0.212733 3.205252
v 0.344864 -0.009641 3.205252
v 0.002469 -0.270354 3.205252
v -0.339927 -0.009641 3.205252
v 0.002469 0.047381 3.219347
v -0.355335 -0.242152 -1.385096
v 0.360273 -0.242152 -1.385096
v 0.002469 -0.280831 -1.385096
v -0.355335 0.011910 -1.385096
v 0.360273 0.011910 -1.385096
v 0.002469 0.075061 -1.370815
v -0.273981 -0.212733 3.386259
v 0.278918 -0.212733 3.386259
v 0.278918 -0.018918 3.386259
v 0.002469 -0.270354 3.386259
v -0.273981 -0.018918 3.386259
v 0.002469 0.038703 3.386259
v -0.201617 -0.216226 3.547619
v 0.206554 -0.216226 3.547619
v 0.206554 -0.069554 3.547619
v 0.002469 -0.265117 3.547619
v -0.201617 -0.069554 3.547619
v 0.002469 -0.024156 3.547619
v -0.167660 -0.197019 3.679165
v 0.172597 -0.197019 3.679165
v 0.002469 -0.209241 3.686529
v -2.027861 -0.062966 0.722494
v -2.002854 -0.061437 1.994186
v -2.082031 -0.179238 0.691172
v -1.980617 -0.171561 2.012979
v -2.179983 -0.050355 1.361473
v -2.204972 -0.182842 1.356773
v 1.868422 -0.023390 0.758193
v 1.843414 -0.021860 2.029882
v 1.922592 -0.139662 0.726871
v 2.020544 -0.010778 1.397169
v 1.821177 -0.131985 2.048678
v 2.045533 -0.143266 1.392472
v -0.526558 -0.222095 -2.968075
v 0.531496 -0.222095 -2.968075
v 0.002469 -0.246264 -2.972834
v -0.524163 0.004607 -2.970931
v 0.529101 0.004607 -2.970931
v 0.002469 0.276872 -3.063249
v -0.192848 -0.277572 -1.573776
v 0.401414 -0.118810 -1.554736
v 0.197786 -0.277572 -1.573776
v -0.396476 -0.118810 -1.554736
v 0.194592 0.072712 -1.573776
v -0.189654 0.072712 -1.573776
v 0.002469 0.314523 -2.101871
v -0.200120 -0.244153 -2.972834
v 0.534197 -0.120561 -3.129927
v 0.205058 -0.244153 -2.972834
v -0.529260 -0.120561 -3.129927
v 0.176835 0.227315 -3.009011
v -0.171897 0.227315 -3.009011
v 0.002469 -0.099217 -3.158489
v -0.499124 0.013282 -2.251307
v -0.501041 -0.233113 -2.251307
v 0.505978 -0.233113 -2.251307
v 0.504062 0.013282 -2.251307
v 0.002469 -0.278387 -2.244679
v -0.199497 -0.274743 -2.263537
v 0.204435 -0.274743 -2.263537
v 0.176336 0.255148 -2.268678
v 0.570352 -0.120304 -2.120725
v -0.197725 -0.102787 -3.147064
v 0.202663 -0.102787 -3.147064
v -0.171398 0.255148 -2.268678
v -0.565414 -0.120304 -2.120725
v -1.316331 -0.171239 -2.931577
v 1.321269 -0.171239 -2.931577
v -1.316331 -0.072295 -2.931577
v 1.321269 -0.072295 -2.931577
v 1.373495 -0.123596 -2.977593
v -1.368557 -0.123596 -2.977593
v -1.315500 -0.070893 -2.480927
v -1.315500 -0.172454 -2.480927
v 1.320437 -0.172454 -2.480927
v 1.320437 -0.070893 -2.480927
v 1.376611 -0.123596 -2.439671
v -1.371674 -0.123596 -2.439671
v 0.002469 0.603665 -2.977593
v 0.002469 0.606459 -2.439671
v 0.058161 0.533751 -2.935383
v -0.053223 0.533751 -2.935387
v 0.058161 0.536731 -2.480927
v -0.053223 0.536731 -2.480927
v 0.002469 0.565922 -2.995847
v 1.297454 -0.123321 -2.991395
v -1.315223 -0.123403 -2.987273
vt 0.7512 0.3809
vt 0.7512 0.4067
vt 0.6871 0.4089
vt 0.6961 0.3905
vt 0.3063 0.4603
vt 0.2936 0.4031
vt 0.4734 0.4176
vt 0.4804 0.4596
vt 0.7510 0.5376
vt 0.7510 0.5120
vt 0.8130 0.5103
vt 0.8025 0.5272
vt 0.3565 0.9267
vt 0.3587 0.8783
vt 0.5491 0.8785
vt 0.5380 0.9221
vt 0.2404 0.4611
vt 0.2403 0.5190
vt 0.2197 0.5190
vt 0.2187 0.4611
vt 0.2938 0.8783
vt 0.2938 0.8286
vt 0.3578 0.8299
vt 0.2937 0.9280
vt 0.2310 0.9266
vt 0.2288 0.8782
vt 0.2298 0.8298
vt 0.2404 0.4134
vt 0.2187 0.4126
vt 0.2621 0.4127
vt 0.2621 0.4611
vt 0.2608 0.5191
vt 0.1745 0.4601
vt 0.1873 0.4030
vt 0.1893 0.5172
vt 0.8155 0.4087
vt 0.8063 0.3904
vt 0.9793 0.4181
vt 0.9731 0.4240
vt 0.2580 0.5794
vt 0.2402 0.5793
vt 0.2224 0.5794
vt 0.2107 0.5797
vt 0.6994 0.5271
vt 0.6889 0.5101
vt 0.2913 0.5174
vt 0.2185 0.3904
vt 0.2092 0.3417
vt 0.2218 0.3407
vt 0.7511 0.3271
vt 0.7744 0.3279
vt 0.2405 0.3894
vt 0.2625 0.3904
vt 0.2592 0.3407
vt 0.2405 0.3407
vt 0.2405 0.2795
vt 0.2520 0.2673
vt 0.2615 0.2796
vt 0.7279 0.3280
vt 0.7283 0.2630
vt 0.7384 0.2491
vt 0.7511 0.2630
vt 0.2718 0.3417
vt 0.2401 0.6404
vt 0.2242 0.6405
vt 0.7293 0.5927
vt 0.7509 0.5935
vt 0.7508 0.6596
vt 0.7334 0.6598
vt 0.7725 0.5927
vt 0.2697 0.5798
vt 0.2094 0.1631
vt 0.2098 0.1751
vt 0.1668 0.1762
vt 0.6707 0.9443
vt 0.6257 0.9784
vt 0.6256 0.9493
vt 0.2195 0.2796
vt 0.2290 0.2673
vt 0.7637 0.2491
vt 0.7738 0.2630
vt 0.2048 0.2812
vt 0.2108 0.2695
vt 0.2702 0.2695
vt 0.2762 0.2812
vt 0.7683 0.6598
vt 0.7637 0.7042
vt 0.7508 0.7032
vt 0.2560 0.6405
vt 0.2513 0.6794
vt 0.2400 0.6794
vt 0.2133 0.6412
vt 0.2669 0.6413
vt 0.2594 0.6811
vt 0.2501 0.6879
vt 0.2288 0.6794
vt 0.2206 0.6810
vt 0.7379 0.7042
vt 0.7508 0.7181
vt 0.7619 0.7169
vt 0.7397 0.7169
vt 0.2400 0.6885
vt 0.2300 0.6879
vt 0.9884 0.4623
vt 0.9794 0.4612
vt 0.9674 0.4978
vt 0.9647 0.4919
vt 0.0005 0.4589
vt 0.0076 0.4169
vt 0.0130 0.5003
vt 0.5396 0.8343
vt 0.5162 0.4635
vt 0.5245 0.4623
vt 0.5381 0.4911
vt 0.5356 0.4969
vt 0.5222 0.4210
vt 0.5284 0.4268
vt 0.0385 0.8781
vt 0.0480 0.8340
vt 0.4678 0.5011
vt 0.0495 0.9218
vt 0.7389 0.1318
vt 0.7407 0.1523
vt 0.7165 0.1317
vt 0.7630 0.1317
vt 0.7612 0.1523
vt 0.7510 0.1527
vt 0.2712 0.1751
vt 0.2715 0.1631
vt 0.3142 0.1762
vt 0.5716 0.9918
vt 0.5482 0.9932
vt 0.5462 0.9472
vt 0.2526 0.2219
vt 0.2405 0.2231
vt 0.2523 0.1752
vt 0.2284 0.2219
vt 0.2100 0.2226
vt 0.2287 0.1752
vt 0.2710 0.2226
vt 0.5702 0.9445
vt 0.6154 0.9784
vt 0.7366 0.1978
vt 0.7510 0.2058
vt 0.7118 0.1995
vt 0.7036 0.2109
vt 0.6577 0.1777
vt 0.6630 0.1750
vt 0.7168 0.2530
vt 0.2780 0.2321
vt 0.2288 0.1613
vt 0.2405 0.1606
vt 0.7854 0.1317
vt 0.2522 0.1613
vt 0.2405 0.1753
vt 0.7510 0.1320
vt 0.6929 0.9930
vt 0.6695 0.9917
vt 0.6948 0.9469
vt 0.7654 0.1978
vt 0.7902 0.1994
vt 0.7985 0.2108
vt 0.8390 0.1748
vt 0.8443 0.1775
vt 0.2029 0.2321
vt 0.7853 0.2530
vt 0.8356 0.1452
vt 0.8396 0.1409
vt 0.3201 0.2050
vt 0.3158 0.2024
vt 0.3178 0.1727
vt 0.6624 0.1411
vt 0.6663 0.1454
vt 0.1652 0.2024
vt 0.1609 0.2050
vt 0.1632 0.1727
vt 0.7434 0.8481
vt 0.7471 0.9351
vt 0.6566 0.8538
vt 0.8682 0.9370
vt 0.9583 0.8554
vt 0.9579 0.9099
vt 0.7853 0.1462
vt 0.7166 0.1463
vt 0.6205 0.9810
vt 0.6153 0.9493
vt 0.7510 0.1697
vt 0.7519 0.1774
vt 0.7500 0.1774
vt 0.7524 0.1718
vt 0.7510 0.1719
vt 0.7496 0.1718
vt 0.3136 0.1719
vt 0.6673 0.1402
vt 0.1662 0.1721
vt 0.8361 0.1403
vt 0.8716 0.8501
vt 0.6573 0.9082
vt 0.7510 0.1774
vt 0.6205 0.9466
vn 0.0912 0.8140 -0.5737
vn -0.1455 -0.9891 0.0223
vn -0.0814 0.8379 0.5397
vn -0.2718 0.9590 0.0802
vn -0.1650 -0.9863 0.0044
vn -0.0061 0.9984 -0.0566
vn -0.0050 0.9985 0.0550
vn 0.0050 0.9985 0.0550
vn 0.0061 0.9984 -0.0566
vn -0.1576 -0.9875 -0.0015
vn 0.1576 -0.9875 -0.0015
vn 0.1650 -0.9863 0.0044
vn -0.3233 -0.9446 -0.0573
vn -0.3568 -0.9301 0.0870
vn -0.2137 0.5012 -0.8385
vn 0.1811 -0.9835 0.0020
vn -0.6595 -0.7350 0.1578
vn 0.0814 0.8379 0.5397
vn 0.3568 -0.9301 0.0870
vn 0.3233 -0.9446 -0.0573
vn -0.4091 -0.9125 -0.0000
vn -0.0912 0.8140 -0.5737
vn -0.6416 -0.7403 -0.2007
vn -0.1165 0.9908 -0.0682
vn -0.1605 -0.9870 0.0000
vn 0.4091 -0.9125 0.0000
vn 0.1605 -0.9870 0.0000
vn 0.1358 -0.9903 0.0304
vn 0.1647 0.9856 0.0378
vn 0.6416 -0.7403 -0.2007
vn 0.1165 0.9908 -0.0682
vn 0.1672 -0.9859 -0.0033
vn -0.1672 -0.9859 -0.0033
vn -0.1951 -0.9807 0.0142
vn 0.1834 0.9793 0.0853
vn -0.1048 0.9913 0.0801
vn -0.1811 -0.9835 0.0020
vn 0.6595 -0.7350 0.1578
vn 0.1048 0.9913 0.0801
vn -0.0789 -0.8451 -0.5288
vn -0.9323 0.3616 -0.0024
vn -0.1358 -0.9903 0.0304
vn -0.1647 0.9856 0.0378
vn -0.9923 -0.1170 0.0411
vn 0.9923 -0.1170 0.0411
vn -0.1952 0.9107 0.3641
vn 0.2161 -0.9749 0.0537
vn 0.1951 -0.9807 0.0142
vn -0.1834 0.9793 0.0853
vn -0.9651 -0.0963 0.2436
vn 0.9651 -0.0963 0.2436
vn 0.9683 0.0000 0.2499
vn -0.9124 0.0000 0.4092
vn 0.9124 0.0000 0.4092
vn 0.1952 0.9107 0.3640
vn -0.2161 -0.9749 0.0537
vn -0.0724 0.6481 0.7581
vn 0.0724 0.6481 0.7581
vn -0.1600 -0.9458 0.2827
vn 0.1600 -0.9458 0.2827
vn -0.9683 0.0000 0.2499
vn -0.9256 0.3231 -0.1974
vn -0.9544 0.0281 0.2973
vn 0.1578 -0.9872 0.0252
vn -0.2256 0.4502 0.8639
vn 0.1705 -0.9851 -0.0210
vn -0.2706 0.9599 -0.0734
vn 0.9544 0.0281 0.2973
vn 0.9256 0.3231 -0.1974
vn 0.2799 0.9571 -0.0745
vn 0.2574 0.4843 -0.8362
vn -0.1585 -0.9872 -0.0170
vn 0.2146 0.4576 0.8629
vn 0.2757 0.9578 0.0808
vn 0.0684 0.3895 -0.9185
vn -0.3718 0.3828 -0.8457
vn 0.0789 -0.8451 -0.5288
vn 0.5934 0.8048 0.0109
vn 0.0140 -0.9990 -0.0431
vn -0.1372 -0.9905 -0.0103
vn -0.0140 -0.9990 -0.0431
vn -0.0156 -0.9999 -0.0033
vn -0.1604 -0.9870 0.0082
vn 0.1372 -0.9905 -0.0103
vn 0.1604 -0.9870 0.0082
vn 0.0156 -0.9999 -0.0033
vn 0.9256 0.3782 -0.0136
vn 0.4053 0.8780 0.2546
vn 0.4744 0.8690 0.1405
vn 0.2508 0.7403 0.6238
vn 0.9176 0.3434 0.2003
vn 0.9068 -0.3725 0.1973
vn -0.0221 -0.7762 -0.6301
vn -0.0649 -0.8458 -0.5295
vn -0.0684 0.3895 -0.9185
vn -0.0091 -0.7766 -0.6300
vn 0.0082 -0.7839 -0.6209
vn 0.0596 0.2451 -0.9677
vn -0.5934 0.8048 0.0109
vn -0.4744 0.8690 0.1405
vn -0.4053 0.8780 0.2546
vn -0.2508 0.7403 0.6238
vn -0.9068 -0.3725 0.1973
vn -0.9176 0.3434 0.2003
vn -0.6923 0.7216 -0.0026
vn 0.6649 -0.7470 -0.0025
vn 0.6923 0.7216 -0.0026
vn -0.6649 -0.7470 -0.0025
vn 0.2240 -0.7833 0.5798
vn 0.0970 0.9952 -0.0086
vn 0.0736 -0.9973 -0.0026
vn -0.1018 0.9948 -0.0029
vn -0.1065 0.7829 -0.6129
vn 0.1065 0.7829 -0.6129
vn -0.2240 -0.7833 0.5798
vn -0.0649 -0.9978 -0.0130
vn -0.7802 0.6256 -0.0041
vn 0.7802 0.6256 -0.0041
vn -0.3449 0.2132 -0.9141
vn -0.6456 0.6136 0.4546
vn 0.3449 0.2132 -0.9141
vn 0.6456 0.6136 0.4546
vn 0.4939 0.6909 -0.5280
vn -0.4939 0.6909 -0.5280
vn -0.0596 0.2451 -0.9677
vn 0.3718 0.3828 -0.8457
vn -0.7756 0.2748 -0.5682
vn 0.7756 0.2748 -0.5682
vn 0.7685 0.4147 -0.4872
vn -0.7685 0.4147 -0.4873
vn 0.0221 -0.7762 -0.6301
vn -0.0082 -0.7839 -0.6209
vn 0.0649 -0.8458 -0.5295
vn 0.0091 -0.7766 -0.6300
vn 0.1150 -0.7524 -0.6485
vn 0.1246 0.7298 -0.6722
vn -0.1150 -0.7524 -0.6485
vn -0.1246 0.7298 -0.6722
vn -0.5365 0.8433 -0.0313
vn -0.9256 0.3782 -0.0136
vn -0.0970 0.9952 -0.0086
vn 0.9323 0.3616 -0.0024
vn 0.5365 0.8433 -0.0313
vn 0.1018 0.9948 -0.0029
vn -0.0736 -0.9973 -0.0026
vn 0.0649 -0.9978 -0.0130
vn -0.0104 -0.9990 -0.0441
vn 0.0104 -0.9990 -0.0441
vn -0.0680 -0.9968 -0.0429
vn 0.0680 -0.9968 -0.0429
vn -0.8198 0.4332 0.3744
vn 0.8198 0.4332 0.3744
vn -0.7831 0.6219 -0.0032
vn 0.7831 0.6219 -0.0032
usemtl PlaneSkin
s off
f 26/1/1 11/2/1 4/3/1 12/4/1
f 25/5/2 12/6/2 71/7/2 74/8/2
f 24/9/3 17/10/3 6/11/3 18/12/3
f 6/13/4 20/14/4 67/15/4 64/16/4
f 22/17/5 16/18/5 5/19/5 19/20/5
f 21/21/6 11/22/6 2/23/6 20/14/6
f 17/24/7 21/21/7 20/14/7 6/13/7
f 8/25/8 14/26/8 21/21/8 17/24/8
f 14/26/9 4/27/9 11/22/9 21/21/9
f 9/28/10 22/17/10 19/20/10 1/29/10
f 3/30/11 13/31/11 22/17/11 9/28/11
f 13/31/12 7/32/12 16/18/12 22/17/12
f 19/20/13 23/33/13 10/34/13 1/29/13
f 5/19/14 18/35/14 23/33/14 19/20/14
f 2/36/15 10/37/15 65/38/15 63/39/15
f 16/18/16 7/32/16 37/40/16 39/41/16
f 18/35/17 5/19/17 36/42/17 40/43/17
f 15/44/18 8/45/18 17/10/18 24/9/18
f 13/31/19 25/5/19 15/46/19 7/32/19
f 3/30/20 12/6/20 25/5/20 13/31/20
f 1/29/21 10/34/21 27/47/21
f 10/37/22 2/36/22 11/2/22 26/1/22
f 27/47/23 10/34/23 33/48/23 30/49/23
f 10/37/24 26/1/24 35/50/24 33/51/24
f 9/28/25 1/29/25 27/47/25 29/52/25
f 12/6/26 3/30/26 28/53/26
f 3/30/27 9/28/27 29/52/27 28/53/27
f 31/54/28 32/55/28 44/56/28 83/57/28 43/58/28
f 35/50/29 34/59/29 46/60/29 85/61/29 47/62/29
f 12/6/30 28/53/30 31/54/30 34/63/30
f 26/1/31 12/4/31 34/59/31 35/50/31
f 28/53/32 29/52/32 32/55/32 31/54/32
f 29/52/33 27/47/33 30/49/33 32/55/33
f 36/42/34 39/41/34 51/64/34 48/65/34
f 38/66/35 41/67/35 53/68/35 50/69/35
f 24/9/36 18/12/36 40/70/36 41/67/36
f 5/19/37 16/18/37 39/41/37 36/42/37
f 7/32/38 15/46/38 38/71/38 37/40/38
f 15/44/39 24/9/39 41/67/39 38/66/39
f 91/72/40 75/73/40 108/74/40
f 93/75/41 125/76/41 123/77/41
f 32/55/42 30/49/42 42/78/42 81/79/42 44/56/42
f 33/51/43 35/50/43 47/62/43 86/80/43 45/81/43
f 30/49/44 33/48/44 45/82/44 84/83/44 42/78/44
f 34/63/45 31/54/45 43/58/45 82/84/45 46/85/45
f 53/68/46 52/86/46 58/87/46 59/88/46
f 51/64/47 49/89/47 55/90/47 57/91/47
f 39/41/48 37/40/48 49/89/48 51/64/48
f 41/67/49 40/70/49 52/86/49 53/68/49
f 40/43/50 36/42/50 48/65/50 52/92/50
f 37/40/51 38/71/51 50/93/51 49/89/51
f 55/90/52 56/94/52 61/95/52
f 52/92/53 48/65/53 54/96/53 58/97/53
f 49/89/54 50/93/54 56/94/54 55/90/54
f 50/69/55 53/68/55 59/88/55 56/98/55
f 48/65/56 51/64/56 57/91/56 54/96/56
f 62/99/57 59/88/57 58/87/57 60/100/57
f 61/101/58 56/98/58 59/88/58 62/99/58
f 54/96/59 57/91/59 62/102/59 60/103/59
f 57/91/60 55/90/60 61/95/60 62/102/60
f 58/97/61 54/96/61 60/103/61
f 68/104/62 67/105/62 63/39/62 65/38/62
f 66/106/63 64/107/63 67/105/63 68/104/63
f 10/34/64 23/33/64 68/108/64 65/109/64
f 18/12/65 6/11/65 64/107/65 66/106/65
f 23/33/66 18/35/66 66/110/66 68/108/66
f 20/14/67 2/23/67 63/111/67 67/15/67
f 74/112/68 72/113/68 70/114/68 73/115/68
f 71/116/69 69/117/69 72/113/69 74/112/69
f 4/27/70 14/26/70 72/118/70 69/119/70
f 12/4/71 4/3/71 69/117/71 71/116/71
f 15/46/72 25/5/72 74/8/72 73/120/72
f 8/45/73 15/44/73 73/115/73 70/114/73
f 14/26/74 8/25/74 70/121/74 72/118/74
f 105/122/75 92/123/75 89/124/75
f 104/125/76 93/126/76 80/127/76
f 76/128/77 89/129/77 109/130/77
f 102/131/78 98/132/78 79/133/78
f 101/134/79 99/135/79 90/136/79
f 100/137/80 96/138/80 75/73/80
f 99/135/81 100/137/81 88/139/81
f 44/56/82 81/79/82 100/137/82 99/135/82
f 81/79/83 42/78/83 96/138/83 100/137/83
f 97/140/84 101/134/84 76/128/84
f 43/58/85 83/57/85 101/134/85 97/140/85
f 83/57/86 44/56/86 99/135/86 101/134/86
f 102/131/87 92/141/87 124/142/87
f 47/62/88 85/61/88 102/143/88 87/144/88
f 85/61/89 46/60/89 98/145/89 102/143/89
f 98/145/90 103/146/90 118/147/90 117/148/90
f 46/60/91 82/149/91 103/146/91 98/145/91
f 82/84/92 43/58/92 97/140/92 103/150/92
f 88/139/93 104/151/93 94/152/93
f 75/73/94 91/72/94 88/139/94
f 91/153/95 93/126/95 104/125/95
f 90/136/96 105/154/96 89/129/96
f 77/155/97 94/152/97 90/136/97
f 94/156/98 80/127/98 105/122/98
f 95/157/99 106/158/99 78/159/99
f 45/81/100 86/80/100 106/160/100 95/161/100
f 86/80/101 47/62/101 87/144/101 106/160/101
f 107/162/102 95/161/102 114/163/102 119/164/102
f 42/78/103 84/83/103 107/165/103 96/138/103
f 84/166/104 45/81/104 95/161/104 107/162/104
f 119/164/105 114/163/105 110/167/105 113/168/105
f 118/169/106 116/170/106 109/130/106 112/171/106
f 117/148/107 118/147/107 112/172/107 111/173/107
f 115/174/108 119/175/108 113/176/108 108/74/108
f 103/150/109 97/140/109 116/170/109 118/169/109
f 79/177/110 98/178/110 111/179/110
f 97/140/111 109/130/111 116/170/111
f 95/180/112 110/181/112 114/182/112
f 78/183/113 91/153/113 110/167/113
f 89/124/114 79/184/114 111/173/114
f 96/138/115 107/165/115 119/175/115 115/174/115
f 75/73/116 96/138/116 108/74/116
f 125/76/117 121/185/117 123/77/117
f 121/185/118 124/142/118 122/186/118
f 80/127/119 93/126/119 126/187/119
f 106/160/120 87/144/120 125/188/120
f 92/123/121 80/127/121 126/187/121
f 87/144/122 102/143/122 124/189/122
f 89/124/123 92/123/123 79/184/123
f 93/126/124 91/153/124 78/183/124
f 80/127/125 94/156/125 104/125/125
f 105/122/126 80/127/126 92/123/126
f 126/187/127 123/190/127 120/191/127
f 122/192/128 126/187/128 120/191/128
f 126/187/129 122/192/129 92/123/129
f 126/187/130 93/126/130 123/190/130
f 90/136/131 94/152/131 105/154/131
f 94/152/132 77/155/132 88/139/132
f 89/129/133 76/128/133 90/136/133
f 88/139/134 91/72/134 104/151/134
f 109/130/135 127/193/135 112/171/135
f 127/193/135 109/130/135 89/129/135
f 127/194/136 111/173/136 112/172/136
f 108/74/137 113/176/137 128/195/137
f 128/195/137 91/72/137 108/74/137
f 110/167/138 128/196/138 113/168/138
f 111/173/136 127/194/136 89/124/136
f 110/167/138 91/153/138 128/196/138
f 78/159/139 106/158/139 93/75/139
f 125/76/140 93/75/140 106/158/140
f 110/181/141 95/180/141 78/197/141
f 124/142/142 92/141/142 122/186/142
f 79/133/143 92/141/143 102/131/143
f 111/179/144 98/178/144 117/198/144
f 108/74/145 96/138/145 115/174/145
f 109/130/146 97/140/146 76/128/146
f 88/139/147 77/155/147 99/135/147
f 90/136/148 99/135/148 77/155/148
f 75/73/149 88/139/149 100/137/149
f 76/128/150 101/134/150 90/136/150
f 125/188/151 87/144/151 121/199/151
f 124/189/152 121/199/152 87/144/152
f 123/77/153 121/185/153 120/200/153
f 122/186/154 120/200/154 121/185/154
